<?xml version="1.0" encoding="UTF-8"?>
<svg id="Layer_1" data-name="Layer 1" xmlns="http://www.w3.org/2000/svg" viewBox="0 0 467.25 221.23">
  <defs>
    <style>
      .cls-1 {
        fill: #fff;
      }

      .cls-2 {
        fill: #006b55;
      }

      .cls-3 {
        fill: #95c940;
      }
    </style>
  </defs>
  <g>
    <ellipse class="cls-2" cx="233.62" cy="110.61" rx="229.91" ry="107.97"/>
    <path class="cls-1" d="m233.62,221.23c-62.13,0-120.59-11.39-164.61-32.06C24.51,168.27,0,140.37,0,110.61S24.51,52.96,69.01,32.06C113.03,11.39,171.49,0,233.62,0s120.59,11.39,164.61,32.06c44.5,20.9,69.01,48.8,69.01,78.55s-24.51,57.66-69.01,78.55c-44.02,20.67-102.48,32.06-164.61,32.06Zm0-215.93C108.9,5.29,7.42,52.54,7.42,110.61s101.47,105.32,226.2,105.32,226.2-47.25,226.2-105.32S358.35,5.29,233.62,5.29Z"/>
  </g>
  <g>
    <path class="cls-3" d="m180.32,136.54c-2.41.41-4.18.94-5.97.97-26.12.38-22.09.41-33.02-13.2-2.53-3.15-4.98-6.33-7.47-9.49-.62.07-1.24.13-1.85.2.8,6.39,1.26,12.81,2.58,19.14.51,2.43.05,3.34-3.23,3.34-6.15.01-12.3.02-18.45-.06-3.63-.04-5.39-.99-3.75-3.87.82-1.44,1.06-3.12,1.07-4.69.08-17.12.06-34.23.07-51.35,0-.44.26-.98,0-1.3-4.91-5.99,1.64-7.05,7.17-8.55,4.63-1.26,9.26-2.5,15.13-4.09v38.62c7.64-5.1,14.31-9.97,21.64-14.26,3.33-1.95,7.87-3.47,12.07-3.81,2.96-.24,7.79,1.3,9.06,3.06,1.64,2.25.98,5.56.33,8.29-.17.7-4.05,1.31-6.23,1.32-5.67.02-11.35-.43-17.02-.43-1.87,0-3.74.81-6.82,1.54,11.4,13,18.05,27.31,34.68,38.62Z"/>
    <path class="cls-1" d="m256.54,134.28c-7.21,4.9-16.94,4.43-27.88-.72-6.95,4.02-15.14,5.7-24.32,4.74-10.49-1.09-18.83-5.63-20.6-11.33-2.03-6.52,2.24-14.39,11.58-17.88,8.02-3,16.95-4.89,25.72-6.68,3.55-.73,4.86-1.63,4.71-4.05-.09-1.46-.08-2.93,0-4.39.22-3.62-1.74-6.37-6.61-7.57-4.7-1.16-9.01.19-11.12,3.04-2.38,3.22-4.11,6.9-4.73,10.51-.65,3.73-1.57,4.75-6.68,3.74-9.52-1.89-12.45-8.34-5.65-13.52,2.96-2.25,6.98-4.09,10.99-5.3,10.16-3.05,20.89-3.23,31.3-.94,12.34,2.71,17.04,7.72,17.18,16.97.12,8.2.03,16.39.1,24.59.03,3.46-1.1,7.28,6.01,8.79Zm-30.6-16.84c-.06,0-.12,0-.18,0,0-.88.1-1.76-.02-2.63-.38-2.83-.83-5.65-1.26-8.47-4.54,1.07-9.57,1.59-13.5,3.35-6.68,2.99-7.67,8.13-6.49,13.25,1.05,4.58,4.59,8.11,11.22,9.55,6.28,1.36,10.7-1.26,10.27-5.83-.29-3.06-.05-6.14-.05-9.21Z"/>
    <path class="cls-1" d="m369.8,133.46c-8.26,4.96-17.32,5.93-27.01,4.38-7.72-1.23-14.33-3.79-17.23-9.42-3.18-6.17-.29-11.52,5.63-16.08,8.25-6.35,19.45-8.46,30.76-9.94,4.25-.56,5.68-1.69,5.35-4.52-.14-1.16.07-2.34.02-3.51-.15-3.59-1.61-6.85-6.83-8.03-5.45-1.23-10.07.64-12.42,3.96-2.02,2.86-3.2,6.29-3.3,9.5-.12,3.82-2.14,4.65-6.78,3.88-9.06-1.49-12.31-7.35-6.94-12.8,1.16-1.18,2.66-2.25,4.25-3.14,11.02-6.19,34.26-7.05,46.22-1.69,6.62,2.97,9.65,7.46,9.73,12.91.14,9.66-.07,19.32.21,28.97.05,1.67,1.7,3.34,2.77,4.95.55.82,2.3,1.95,2.05,2.19-.85.84-2.22,1.7-3.6,1.95-8.18,1.48-15.83.69-22.88-3.57Zm-2.55-28.39c-5.66,1.54-10.29,2.27-14.08,3.96-7.69,3.42-8.57,9.08-7.17,14.78,1.08,4.41,4.92,7.63,11.47,8.71,4.7.78,9.63-1.08,9.71-3.98.2-7.29.07-14.58.07-23.47Z"/>
    <path class="cls-1" d="m262.43,138.6c15.02,7.24,19.99,7.16,25.28.72-2.69-3.66-5.47-6.83-7.44-10.24-6.49-11.21-12.59-22.54-19.08-33.75-1.55-2.67-3.95-5.1-6.08-7.59-2.16-2.54-1.19-3.92,2.89-4,5.95-.11,11.91-.16,17.85-.01,4.56.11,7.45,1.94,9.04,5.05,4.14,8.1,8.44,16.16,12.73,24.22.69,1.29,1.62,2.51,2.68,4.13,8.61-9.73,7.23-19.03,1.04-28.35-3.08-4.65-2.74-5.1,4.54-5.19,3.69-.04,7.4.08,11.08-.14,4.99-.29,6.31,1.33,5.17,4.49-.61,1.7-1.02,3.45-1.93,5.06-9.51,16.8-18.97,33.62-28.76,50.34-3.68,6.29-8.28,12.41-19.25,13.33-3.5.29-7.45.03-10.71-.87-7.64-2.13-8.38-3.94-4.82-9.22,1.74-2.59,3.7-5.11,5.78-7.97Z"/>
    <path class="cls-1" d="m96.87,99.82c0,9.66,0,19.33.01,28.99,0,1.32-.1,2.67.29,3.94,1.53,4.96,1.46,5.09-5.46,5.08-5.54,0-11.08.01-16.62-.09-3.25-.06-5.09-.89-3.63-3.61.84-1.57,1.33-3.34,1.34-5.02.09-16.69.04-33.39.03-50.08,0-1.03.48-2.24-.11-3.05-4.18-5.73,1.64-6.95,7.16-8.43,3.07-.82,6.04-1.83,9.09-2.67,6.06-1.68,7.83-.86,7.85,3.75.05,10.4.02,20.79.02,31.19h.04Z"/>
    <g>
      <path class="cls-1" d="m75.21,153.99l-1.61,3.48h-2.07l5.27-11.06h2.42l5.29,11.06h-2.14l-1.66-3.48h-5.5Zm5.09-1.12l-1.52-3.18c-.35-.72-.58-1.38-.81-2.02h-.05c-.23.66-.48,1.33-.78,2l-1.52,3.2h4.67Z"/>
      <path class="cls-1" d="m91.66,146.53c.97-.11,2.23-.21,3.85-.21,1.98,0,3.43.33,4.35.92.85.53,1.36,1.33,1.36,2.31s-.41,1.79-1.2,2.36c-1.06.8-2.79,1.22-4.74,1.22-.6,0-1.15-.02-1.61-.1v4.43h-2v-10.93Zm2,5.34c.44.08.99.12,1.66.12,2.42,0,3.89-.84,3.89-2.36s-1.45-2.17-3.66-2.17c-.87,0-1.54.05-1.89.12v4.3Z"/>
      <path class="cls-1" d="m103.9,146.55c1.01-.15,2.46-.23,3.85-.23,2.14,0,3.52.28,4.49.9.78.49,1.22,1.25,1.22,2.1,0,1.46-1.29,2.43-2.92,2.82v.05c1.2.3,1.91,1.08,2.28,2.23.51,1.54.87,2.61,1.2,3.04h-2.07c-.25-.31-.6-1.26-1.04-2.64-.46-1.53-1.29-2.1-3.11-2.15h-1.89v4.79h-2v-10.92Zm2,5.04h2.05c2.14,0,3.5-.84,3.5-2.1,0-1.43-1.45-2.05-3.57-2.07-.97,0-1.66.07-1.98.13v4.04Z"/>
      <path class="cls-1" d="m129.61,151.82c0,3.81-3.25,5.83-7.2,5.83s-6.98-2.27-6.98-5.61c0-3.51,3.06-5.81,7.2-5.81s6.98,2.31,6.98,5.6Zm-12.04.18c0,2.36,1.79,4.48,4.95,4.48s4.97-2.08,4.97-4.6c0-2.2-1.61-4.5-4.95-4.5s-4.97,2.18-4.97,4.61Z"/>
      <path class="cls-1" d="m132.2,146.55c1.22-.13,2.67-.23,4.26-.23,2.88,0,4.93.48,6.28,1.38,1.38.9,2.19,2.18,2.19,3.97s-.78,3.28-2.23,4.3c-1.45,1.03-3.84,1.59-6.86,1.59-1.43,0-2.62-.05-3.64-.13v-10.88Zm2,9.78c.51.07,1.24.08,2.03.08,4.28,0,6.61-1.71,6.61-4.69.02-2.61-2.05-4.27-6.28-4.27-1.04,0-1.82.07-2.35.15v8.73Z"/>
      <path class="cls-1" d="m149.53,146.4v6.55c0,2.48,1.54,3.53,3.61,3.53,2.3,0,3.78-1.08,3.78-3.53v-6.55h2.02v6.45c0,3.4-2.51,4.79-5.87,4.79-3.18,0-5.57-1.3-5.57-4.73v-6.52h2.03Z"/>
      <path class="cls-1" d="m173.25,157.11c-.74.26-2.21.53-4.1.53-4.37,0-7.67-1.97-7.67-5.6s3.29-5.81,8.1-5.81c1.93,0,3.15.3,3.68.49l-.48,1.17c-.76-.26-1.84-.46-3.13-.46-3.64,0-6.05,1.66-6.05,4.56,0,2.71,2.19,4.45,5.96,4.45,1.22,0,2.46-.18,3.27-.46l.41,1.13Z"/>
      <path class="cls-1" d="m179.35,147.62h-4.72v-1.22h11.49v1.22h-4.74v9.85h-2.02v-9.85Z"/>
      <path class="cls-1" d="m192.71,146.4h8.36v1.2h-6.35v3.68h5.87v1.18h-5.87v5.01h-2v-11.06Z"/>
      <path class="cls-1" d="m203.92,146.55c1.01-.15,2.46-.23,3.84-.23,2.14,0,3.52.28,4.49.9.78.49,1.22,1.25,1.22,2.1,0,1.46-1.29,2.43-2.92,2.82v.05c1.2.3,1.91,1.08,2.28,2.23.51,1.54.87,2.61,1.2,3.04h-2.07c-.25-.31-.6-1.26-1.04-2.64-.46-1.53-1.29-2.1-3.11-2.15h-1.89v4.79h-2v-10.92Zm2,5.04h2.05c2.14,0,3.5-.84,3.5-2.1,0-1.43-1.45-2.05-3.57-2.07-.97,0-1.66.07-1.98.13v4.04Z"/>
      <path class="cls-1" d="m229.62,151.82c0,3.81-3.24,5.83-7.2,5.83s-6.97-2.27-6.97-5.61c0-3.51,3.06-5.81,7.2-5.81s6.97,2.31,6.97,5.6Zm-12.04.18c0,2.36,1.79,4.48,4.95,4.48s4.97-2.08,4.97-4.6c0-2.2-1.61-4.5-4.95-4.5s-4.97,2.18-4.97,4.61Z"/>
      <path class="cls-1" d="m245.3,152.61c-.12-1.54-.25-3.4-.23-4.78h-.07c-.53,1.3-1.17,2.68-1.96,4.2l-2.74,5.37h-1.52l-2.51-5.27c-.74-1.56-1.36-2.99-1.79-4.3h-.05c-.04,1.38-.16,3.23-.3,4.89l-.41,4.74h-1.91l1.08-11.06h2.55l2.65,5.35c.64,1.36,1.17,2.58,1.56,3.73h.07c.39-1.12.94-2.33,1.63-3.73l2.76-5.35h2.55l.97,11.06h-1.96l-.39-4.86Z"/>
    </g>
    <g>
      <path class="cls-1" d="m295.88,145.71h2v5.34h.07c.41-.43.83-.82,1.22-1.18l4.74-4.15h2.49l-5.62,4.7,6.05,6.37h-2.37l-5.11-5.43-1.47,1.21v4.22h-2v-11.06Z"/>
      <path class="cls-1" d="m316.38,151.59h-6.03v3.99h6.72v1.2h-8.72v-11.06h8.38v1.2h-6.38v3.5h6.03v1.18Z"/>
      <path class="cls-1" d="m319.67,145.86c1.01-.15,2.46-.23,3.84-.23,2.14,0,3.52.28,4.49.9.78.49,1.22,1.25,1.22,2.1,0,1.46-1.29,2.43-2.92,2.82v.05c1.2.3,1.91,1.08,2.28,2.23.51,1.54.87,2.61,1.2,3.04h-2.07c-.25-.31-.6-1.26-1.04-2.64-.46-1.53-1.29-2.1-3.11-2.15h-1.89v4.79h-2v-10.92Zm2,5.04h2.05c2.14,0,3.5-.84,3.5-2.1,0-1.43-1.45-2.05-3.57-2.07-.97,0-1.66.07-1.98.13v4.04Z"/>
      <path class="cls-1" d="m334.67,153.29l-1.61,3.48h-2.07l5.27-11.06h2.42l5.29,11.06h-2.14l-1.66-3.48h-5.5Zm5.09-1.12l-1.52-3.18c-.35-.72-.58-1.38-.81-2.02h-.05c-.23.66-.48,1.33-.78,2l-1.52,3.2h4.67Z"/>
      <path class="cls-1" d="m346.24,145.71h2v9.87h6.63v1.2h-8.63v-11.06Z"/>
      <path class="cls-1" d="m359.61,153.29l-1.61,3.48h-2.07l5.27-11.06h2.42l5.29,11.06h-2.14l-1.66-3.48h-5.5Zm5.09-1.12l-1.52-3.18c-.35-.72-.58-1.38-.81-2.02h-.05c-.23.66-.48,1.33-.78,2l-1.52,3.2h4.67Z"/>
    </g>
  </g>
</svg>